<svg width="129" height="33" viewBox="0 0 129 33" fill="none" xmlns="http://www.w3.org/2000/svg">
<g id="OL_sub-brand_lockup_two-line_rgb_black 1" clip-path="url(#clip0_47_144)">
<path id="Vector" d="M29.8068 29.9685H36.4305V10.1513H29.8068V29.9685ZM39.7423 6.84846H56.3016V0.242737H39.7423V6.84846ZM29.8068 0.242737H36.4305V6.84846H29.8068V0.242737ZM19.8712 29.9685H26.4949V0.242737H19.8712V29.9685ZM9.93558 23.3628H16.5593V0.242737H9.93558V23.3628ZM0 29.9685H6.62372V0.242737H0V29.9685ZM39.7423 29.9685H46.3661V10.1513H39.7423V29.9685Z" fill="black"/>
<g id="Group">
<path id="Vector_2" d="M63.8809 17.5826H66.3995V27.8724H72.2359V29.9685H63.8809V17.5826Z" fill="black"/>
<path id="Vector_3" d="M72.7915 25.5165C72.7915 22.8834 74.5807 20.8393 77.1861 20.8393C80.0522 20.8393 81.5808 23.022 81.5808 26.1921H75.1191C75.2928 27.5606 76.057 28.4094 77.3946 28.4094C78.3152 28.4094 78.8537 27.9937 79.1142 27.318H81.4418C81.1118 28.8944 79.7048 30.2283 77.412 30.2283C74.4591 30.2283 72.7915 28.1669 72.7915 25.5165ZM75.1539 24.5637H79.1143C79.0448 23.4377 78.2978 22.6582 77.2209 22.6582C75.9702 22.6582 75.3623 23.4031 75.1539 24.5637Z" fill="black"/>
<path id="Vector_4" d="M88.0076 28.9811H87.9729C87.5212 29.6567 86.8785 30.1764 85.35 30.1764C83.5261 30.1764 82.2407 29.2236 82.2407 27.4567C82.2407 25.4991 83.8388 24.8755 85.819 24.5984C87.2954 24.3905 87.9729 24.2692 87.9729 23.5936C87.9729 22.9527 87.4692 22.5369 86.4791 22.5369C85.3674 22.5369 84.8289 22.9353 84.7594 23.7842H82.6576C82.7271 22.2251 83.8909 20.8566 86.4964 20.8566C89.1714 20.8566 90.2484 22.0519 90.2484 24.1307V28.6519C90.2484 29.3275 90.3526 29.726 90.5611 29.8818V29.9685H88.2856C88.1466 29.7953 88.0597 29.3795 88.0076 28.9811ZM88.025 26.833V25.4991C87.6081 25.7417 86.9654 25.8802 86.3748 26.0188C85.1415 26.296 84.5336 26.5732 84.5336 27.4047C84.5336 28.2362 85.0894 28.5306 85.9232 28.5306C87.2781 28.5307 88.025 27.6992 88.025 26.833Z" fill="black"/>
<path id="Vector_5" d="M94.0172 22.5023H94.0693C94.6077 21.4975 95.2157 20.9778 96.2579 20.9778C96.5184 20.9778 96.6748 20.9952 96.8138 21.0472V23.1086H96.7617C95.2157 22.9527 94.104 23.7669 94.104 25.6378V29.9685H91.7417V21.0818H94.0172L94.0172 22.5023Z" fill="black"/>
<path id="Vector_6" d="M100.149 22.2944H100.201C100.809 21.3417 101.625 20.8393 102.841 20.8393C104.682 20.8393 105.915 22.2251 105.915 24.1653V29.9685H103.553V24.5118C103.553 23.559 102.997 22.8834 102.007 22.8834C100.965 22.8834 100.201 23.715 100.201 24.9276V29.9686H97.8384V21.0818H100.149L100.149 22.2944Z" fill="black"/>
<path id="Vector_7" d="M107.375 17.5826H109.737V19.696H107.375V17.5826ZM107.375 21.0818H109.737V29.9685H107.375V21.0818Z" fill="black"/>
<path id="Vector_8" d="M113.576 22.2944H113.628C114.236 21.3417 115.052 20.8393 116.268 20.8393C118.109 20.8393 119.343 22.2251 119.343 24.1653V29.9685H116.98V24.5118C116.98 23.559 116.425 22.8834 115.434 22.8834C114.392 22.8834 113.628 23.715 113.628 24.9276V29.9686H111.266V21.0818H113.576L113.576 22.2944Z" fill="black"/>
<path id="Vector_9" d="M120.558 30.2283H122.903C123.094 30.7827 123.598 31.2157 124.692 31.2157C126.03 31.2157 126.673 30.5748 126.673 29.3622V28.3921H126.62C126.099 28.9811 125.422 29.4314 124.293 29.4314C122.313 29.4314 120.367 27.8724 120.367 25.1873C120.367 22.5369 121.965 20.8393 124.223 20.8393C125.335 20.8393 126.151 21.2723 126.69 22.0173H126.725V21.0818H129V29.2929C129 30.5401 128.601 31.389 127.941 31.9953C127.194 32.6882 126.047 33 124.727 33C122.295 33 120.801 31.9606 120.558 30.2283ZM126.794 25.1354C126.794 23.8361 126.099 22.7275 124.675 22.7275C123.476 22.7275 122.677 23.6629 122.677 25.1527C122.677 26.6598 123.476 27.5432 124.692 27.5432C126.186 27.5433 126.794 26.4519 126.794 25.1354Z" fill="black"/>
</g>
<g id="Group_2">
<path id="Vector_10" d="M63.3423 6.46147C63.3423 2.75438 65.6699 0 69.335 0C73.0001 0 75.3103 2.75438 75.3103 6.46147C75.3103 10.1686 73.0001 12.9056 69.335 12.9056C65.6699 12.9056 63.3423 10.1686 63.3423 6.46147ZM72.7395 6.46147C72.7395 3.98429 71.6278 2.06144 69.3524 2.06144C67.0769 2.06144 65.9131 3.98429 65.9131 6.46147C65.9131 8.92132 67.0769 10.8442 69.3524 10.8442C71.6279 10.8442 72.7395 8.92132 72.7395 6.46147Z" fill="black"/>
<path id="Vector_11" d="M76.4912 3.74178H78.7667V4.85047H78.8188C79.392 4.07095 80.2258 3.49927 81.4417 3.49927C83.804 3.49927 85.3152 5.42211 85.3152 8.19379C85.3152 11.0694 83.7519 12.8883 81.4591 12.8883C80.2084 12.8883 79.392 12.3859 78.8883 11.6237H78.8535V15.5387H76.4912V3.74178ZM82.9182 8.26306C82.9182 6.58278 82.3275 5.40481 80.8685 5.40481C79.392 5.40481 78.8014 6.66939 78.8014 8.26306C78.8014 9.87407 79.5483 10.9308 80.9553 10.9308C82.1539 10.9308 82.9182 9.94339 82.9182 8.26306Z" fill="black"/>
<path id="Vector_12" d="M85.9751 8.17645C85.9751 5.54337 87.7642 3.49927 90.3697 3.49927C93.2358 3.49927 94.7644 5.68196 94.7644 8.85205H88.3027C88.4764 10.2206 89.2407 11.0694 90.5782 11.0694C91.4988 11.0694 92.0373 10.6536 92.2978 9.978H94.6254C94.2954 11.5544 92.8884 12.8883 90.5956 12.8883C87.6426 12.8883 85.9751 10.8268 85.9751 8.17645ZM88.3375 7.2237H92.2979C92.2284 6.09771 91.4814 5.31819 90.4046 5.31819C89.1539 5.31815 88.5459 6.06303 88.3375 7.2237Z" fill="black"/>
<path id="Vector_13" d="M98.1691 4.95438H98.2212C98.8292 4.00163 99.6455 3.49927 100.861 3.49927C102.703 3.49927 103.936 4.88506 103.936 6.82529V12.6285H101.574V7.17176C101.574 6.21901 101.018 5.54341 100.028 5.54341C98.9855 5.54341 98.2212 6.37494 98.2212 7.58754V12.6285H95.8589V3.74178H98.1691L98.1691 4.95438Z" fill="black"/>
</g>
</g>
<defs>
<clipPath id="clip0_47_144">
<rect width="129" height="33" fill="white"/>
</clipPath>
</defs>
</svg>
